# Blender 4.5.4 LTS
# www.blender.org
mtllib parkirna_mesta.mtl
o Cube
v 2.459912 0.012777 -3.728472
v 2.459912 -0.012777 -3.728472
v 2.459912 0.012777 3.728472
v 2.459912 -0.012777 3.728472
v -2.459912 0.012777 -3.728472
v -2.459912 -0.012777 -3.728472
v -2.459912 0.012777 3.728472
v -2.459912 -0.012777 3.728472
v 0.000000 -0.012777 -3.728472
v 0.000000 0.012777 3.728472
v 0.000000 -0.012777 3.728472
v 0.000000 0.012777 -3.728472
v -1.229956 -0.012777 -3.728472
v -1.229956 0.012777 3.728472
v -1.229956 -0.012777 3.728472
v -1.229956 0.012777 -3.728472
v -1.844934 -0.012777 -3.728472
v -1.844934 0.012777 3.728472
v -1.844934 -0.012777 3.728472
v -1.844934 0.012777 -3.728472
v -2.152423 -0.012777 -3.728472
v -2.152423 0.012777 3.728472
v -2.152423 -0.012777 3.728472
v -2.152423 0.012777 -3.728472
v 1.229956 -0.012777 3.728472
v 1.229956 0.012777 -3.728472
v 1.229956 -0.012777 -3.728472
v 1.229956 0.012777 3.728472
v 1.844934 -0.012777 3.728472
v 1.844934 0.012777 -3.728472
v 1.844934 -0.012777 -3.728472
v 1.844934 0.012777 3.728472
v 1.537445 -0.012777 -3.728472
v 1.537445 0.012777 3.728472
v 1.537445 -0.012777 3.728472
v 1.537445 0.012777 -3.728472
v 2.152423 -0.012777 3.728472
v 2.152423 0.012777 -3.728472
v 2.152423 -0.012777 -3.728472
v 2.152423 0.012777 3.728472
v -2.459912 -0.012777 -0.003551
v 2.459912 0.012777 -0.003551
v -2.459912 0.012777 -0.003551
v 2.459912 -0.012777 -0.003551
v 0.000000 -0.012777 -0.003551
v 0.000000 0.012777 -0.003551
v -1.229956 -0.012777 -0.003551
v -1.229956 0.012777 -0.003551
v -1.844934 -0.012777 -0.003551
v -1.844934 0.012777 -0.003551
v -2.152423 -0.012777 -0.003551
v -2.152423 0.012777 -0.003551
v 1.229956 0.012777 -0.003551
v 1.229956 -0.012777 -0.003551
v 1.844934 0.012777 -0.003551
v 1.844934 -0.012777 -0.003551
v 1.537445 -0.012777 -0.003551
v 1.537445 0.012777 -0.003551
v 2.152423 0.012777 -0.003551
v 2.152423 -0.012777 -0.003551
v -2.459912 0.012777 -1.866011
v 2.459912 -0.012777 -1.866011
v -2.459912 -0.012777 -1.866011
v 2.459912 0.012777 -1.866011
v 0.000000 -0.012777 -1.866011
v 0.000000 0.012777 -1.866011
v -1.229956 -0.012777 -1.866011
v -1.229956 0.012777 -1.866011
v -1.844934 -0.012777 -1.866011
v -1.844934 0.012777 -1.866011
v -2.152423 -0.012777 -1.866011
v -2.152423 0.012777 -1.866011
v 1.229956 0.012777 -1.866011
v 1.229956 -0.012777 -1.866011
v 1.844934 0.012777 -1.866011
v 1.844934 -0.012777 -1.866011
v 1.537445 -0.012777 -1.866011
v 1.537445 0.012777 -1.866011
v 2.152423 0.012777 -1.866011
v 2.152423 -0.012777 -1.866011
v -2.459912 0.012777 -2.797242
v 2.459912 -0.012777 -2.797242
v -2.459912 -0.012777 -2.797242
v 2.459912 0.012777 -2.797242
v 0.000000 -0.012777 -2.797242
v 0.000000 0.012777 -2.797242
v -1.229956 -0.012777 -2.797242
v -1.229956 0.012777 -2.797242
v -1.844934 -0.012777 -2.797242
v -1.844934 0.012777 -2.797242
v -2.152423 -0.012777 -2.797242
v -2.152423 0.012777 -2.797242
v 1.229956 0.012777 -2.797242
v 1.229956 -0.012777 -2.797242
v 1.844934 0.012777 -2.797242
v 1.844934 -0.012777 -2.797242
v 1.537445 -0.012777 -2.797242
v 1.537445 0.012777 -2.797242
v 2.152423 0.012777 -2.797242
v 2.152423 -0.012777 -2.797242
v -2.459912 0.012777 -3.262857
v 2.459912 -0.012777 -3.262857
v -2.459912 -0.012777 -3.262857
v 2.459912 0.012777 -3.262857
v 0.000000 -0.012777 -3.262857
v 0.000000 0.012777 -3.262857
v -1.229956 -0.012777 -3.262857
v -1.229956 0.012777 -3.262857
v -1.844934 -0.012777 -3.262857
v -1.844934 0.012777 -3.262857
v -2.152423 -0.012777 -3.262857
v -2.152423 0.012777 -3.262857
v 1.229956 0.012777 -3.262857
v 1.229956 -0.012777 -3.262857
v 1.844934 0.012777 -3.262857
v 1.844934 -0.012777 -3.262857
v 1.537445 -0.012777 -3.262857
v 1.537445 0.012777 -3.262857
v 2.152423 0.012777 -3.262857
v 2.152423 -0.012777 -3.262857
v -1.844934 0.042193 -0.003551
v -1.844934 0.042193 3.728472
v -2.152423 0.042193 3.728472
v -2.152423 0.042193 -0.003551
v 2.152423 0.042193 3.728472
v 1.844934 0.042193 3.728472
v 1.844934 0.042193 -0.003551
v 2.152423 0.042193 -0.003551
v -1.844934 0.042193 -1.866011
v -2.152423 0.042193 -1.866011
v 1.844934 0.042193 -1.866011
v 2.152423 0.042193 -1.866011
v -1.844934 0.042193 -2.797242
v -2.152423 0.042193 -2.797242
v 1.844934 0.042193 -2.797242
v 2.152423 0.042193 -2.797242
v 0.000000 0.042193 -3.262857
v 0.000000 0.042193 -2.797242
v -1.229956 0.042193 -3.262857
v -1.229956 0.042193 -2.797242
v -1.844934 0.042193 -3.262857
v -2.152423 0.042193 -3.262857
v 1.229956 0.042193 -3.262857
v 1.229956 0.042193 -2.797242
v 1.844934 0.042193 -3.262857
v 1.537445 0.042193 -3.262857
v 1.537445 0.042193 -2.797242
v 2.152423 0.042193 -3.262857
vn -0.0000 1.0000 -0.0000
vn -0.0000 -0.0000 1.0000
vn -1.0000 -0.0000 -0.0000
vn -0.0000 -1.0000 -0.0000
vn 1.0000 -0.0000 -0.0000
vn -0.0000 -0.0000 -1.0000
vt 0.933425 0.502238
vt 0.995696 0.502238
vt 0.995696 1.001984
vt 0.933425 1.001984
vt 0.375000 0.984375
vt 0.625000 0.984375
vt 0.625000 1.000000
vt 0.375000 1.000000
vt 0.375000 0.234390
vt 0.625000 0.234390
vt 0.625000 0.250000
vt 0.375000 0.250000
vt 0.359375 0.624881
vt 0.375000 0.624881
vt 0.375000 0.750000
vt 0.359375 0.750000
vt 0.625000 0.624881
vt 0.625000 0.750000
vt 0.375000 0.484375
vt 0.625000 0.484375
vt 0.625000 0.500000
vt 0.375000 0.500000
vt 0.375000 0.312500
vt 0.625000 0.312500
vt 0.625000 0.375000
vt 0.375000 0.375000
vt 0.187500 0.624881
vt 0.250000 0.624881
vt 0.250000 0.750000
vt 0.187500 0.750000
vt 0.375000 0.812500
vt 0.625000 0.812500
vt 0.625000 0.875000
vt 0.375000 0.875000
vt 0.248437 0.502238
vt 0.497523 0.502238
vt 0.497523 1.001984
vt 0.248437 1.001984
vt 0.156250 0.624881
vt 0.156250 0.750000
vt 0.375000 0.281250
vt 0.625000 0.281250
vt 0.625000 0.937500
vt 0.375000 0.937500
vt 0.746610 0.502238
vt 0.746610 1.001984
vt 0.375000 0.265625
vt 0.625000 0.265625
vt 0.140625 0.624881
vt 0.140625 0.750000
vt 0.625000 0.968750
vt 0.375000 0.968750
vt 0.871153 0.502238
vt 0.871153 1.001984
vt 0.125000 0.624881
vt 0.125000 0.750000
vt 0.061622 0.502238
vt 0.061622 0.252841
vt 0.186165 0.502238
vt 0.186165 1.001984
vt 0.375000 0.796875
vt 0.625000 0.796875
vt 0.625000 0.437500
vt 0.375000 0.437500
vt 0.312500 0.624881
vt 0.312500 0.750000
vt 0.375000 0.765625
vt 0.625000 0.765625
vt 0.625000 0.781250
vt 0.375000 0.781250
vt 0.061622 0.128142
vt 0.375000 0.453125
vt 0.625000 0.453125
vt 0.625000 0.468750
vt 0.375000 0.468750
vt 0.328125 0.624881
vt 0.343750 0.624881
vt 0.343750 0.750000
vt 0.328125 0.750000
vt 0.123893 0.502238
vt 0.123893 1.001984
vt -0.000650 0.502238
vt 0.061622 1.001984
vt -0.000650 1.001984
vt 0.343750 0.562441
vt 0.359375 0.562441
vt -0.000650 0.252841
vt 0.123893 0.252841
vt 0.186165 0.252841
vt 0.312500 0.562441
vt 0.328125 0.562441
vt 0.061622 0.065792
vt 0.250000 0.562441
vt 0.248437 0.252841
vt 0.186165 0.065792
vt 0.248437 0.065792
vt 0.125000 0.562441
vt 0.140625 0.562441
vt 0.746610 0.252841
vt 0.871153 0.252841
vt 0.156250 0.562441
vt 0.497523 0.252841
vt 0.187500 0.562441
vt 0.375000 0.562441
vt 0.625000 0.562441
vt 0.375000 0.000000
vt 0.625000 0.000000
vt 0.625000 0.125119
vt 0.375000 0.125119
vt 0.933425 0.252841
vt 0.995696 0.252841
vt 0.933425 0.128142
vt 0.995696 0.128142
vt 0.359375 0.531220
vt 0.375000 0.531220
vt 0.625000 0.531220
vt 0.187500 0.531220
vt 0.250000 0.531220
vt 0.248437 0.128142
vt 0.497523 0.128142
vt 0.156250 0.531220
vt 0.746610 0.128142
vt 0.140625 0.531220
vt 0.871153 0.128142
vt 0.125000 0.531220
vt 0.186165 0.128142
vt 0.312500 0.531220
vt 0.871153 0.065792
vt 0.933425 0.065792
vt 0.328125 0.531220
vt 0.343750 0.531220
vt 0.123893 0.128142
vt -0.000650 0.128142
vt 0.625000 0.187560
vt 0.375000 0.187560
vt 0.343750 0.515610
vt 0.359375 0.515610
vt -0.000650 0.065792
vt 0.312500 0.515610
vt 0.328125 0.515610
vt 0.250000 0.515610
vt 0.746610 0.065792
vt 0.125000 0.515610
vt 0.140625 0.515610
vt 0.156250 0.515610
vt 0.187500 0.515610
vt 0.497523 0.065792
vt 0.375000 0.515610
vt 0.625000 0.515610
vt 0.995696 0.065792
vt 0.625000 0.218780
vt 0.375000 0.218780
vt 0.933425 0.003443
vt 0.995696 0.003443
vt 0.359375 0.500000
vt 0.187500 0.500000
vt 0.250000 0.500000
vt 0.248437 0.003443
vt 0.497523 0.003443
vt 0.156250 0.500000
vt 0.746610 0.003443
vt 0.140625 0.500000
vt 0.871153 0.003443
vt 0.125000 0.500000
vt 0.186165 0.003443
vt 0.312500 0.500000
vt 0.061622 0.003443
vt 0.123893 0.003443
vt 0.123893 0.065792
vt 0.328125 0.500000
vt 0.343750 0.500000
vt -0.000650 0.003443
s 0
usemtl Material
f 52/1/1 43/2/1 7/3/1 22/4/1
f 23/5/2 22/6/2 7/7/2 8/8/2
f 103/9/3 101/10/3 5/11/3 6/12/3
f 60/13/4 44/14/4 4/15/4 37/16/4
f 44/14/5 42/17/5 3/18/5 4/15/5
f 39/19/6 38/20/6 1/21/6 2/22/6
f 13/23/6 16/24/6 12/25/6 9/26/6
f 47/27/4 45/28/4 11/29/4 15/30/4
f 25/31/2 28/32/2 10/33/2 11/34/2
f 53/35/1 46/36/1 10/37/1 28/38/1
f 49/39/4 47/27/4 15/30/4 19/40/4
f 17/41/6 20/42/6 16/24/6 13/23/6
f 11/34/2 10/33/2 14/43/2 15/44/2
f 46/36/1 48/45/1 14/46/1 10/37/1
f 21/47/6 24/48/6 20/42/6 17/41/6
f 51/49/4 49/39/4 19/40/4 23/50/4
f 15/44/2 14/43/2 18/51/2 19/52/2
f 48/45/1 50/53/1 18/54/1 14/46/1
f 41/55/4 51/49/4 23/50/4 8/56/4
f 6/12/6 5/11/6 24/48/6 21/47/6
f 19/52/2 18/51/2 22/6/2 23/5/2
f 59/57/5 79/58/5 132/58/5 128/57/5
f 58/59/1 53/35/1 28/38/1 34/60/1
f 35/61/2 34/62/2 28/32/2 25/31/2
f 9/26/6 12/25/6 26/63/6 27/64/6
f 45/28/4 54/65/4 25/66/4 11/29/4
f 37/67/2 40/68/2 32/69/2 29/70/2
f 79/58/5 99/71/5 136/71/5 132/58/5
f 33/72/6 36/73/6 30/74/6 31/75/6
f 57/76/4 56/77/4 29/78/4 35/79/4
f 54/65/4 57/76/4 35/79/4 25/66/4
f 27/64/6 26/63/6 36/73/6 33/72/6
f 29/70/2 32/69/2 34/62/2 35/61/2
f 55/80/1 58/59/1 34/60/1 32/81/1
f 42/82/1 59/57/1 40/83/1 3/84/1
f 4/15/2 3/18/2 40/68/2 37/67/2
f 31/75/6 30/74/6 38/20/6 39/19/6
f 56/77/4 60/13/4 37/16/4 29/78/4
f 76/85/4 80/86/4 60/13/4 56/77/4
f 64/87/1 79/58/1 59/57/1 42/82/1
f 75/88/1 78/89/1 58/59/1 55/80/1
f 74/90/4 77/91/4 57/76/4 54/65/4
f 77/91/4 76/85/4 56/77/4 57/76/4
f 99/71/5 119/92/5 148/92/5 136/71/5
f 65/93/4 74/90/4 54/65/4 45/28/4
f 78/89/1 73/94/1 53/35/1 58/59/1
f 118/95/6 113/96/6 143/96/6 146/95/6
f 63/97/4 71/98/4 51/49/4 41/55/4
f 68/99/1 70/100/1 50/53/1 48/45/1
f 71/98/4 69/101/4 49/39/4 51/49/4
f 66/102/1 68/99/1 48/45/1 46/36/1
f 69/101/4 67/103/4 47/27/4 49/39/4
f 73/94/1 66/102/1 46/36/1 53/35/1
f 67/103/4 65/93/4 45/28/4 47/27/4
f 62/104/5 64/105/5 42/17/5 44/14/5
f 80/86/4 62/104/4 44/14/4 60/13/4
f 8/106/3 7/107/3 43/108/3 41/109/3
f 72/110/1 61/111/1 43/2/1 52/1/1
f 92/112/1 81/113/1 61/111/1 72/110/1
f 100/114/4 82/115/4 62/104/4 80/86/4
f 82/115/5 84/116/5 64/105/5 62/104/5
f 87/117/4 85/118/4 65/93/4 67/103/4
f 93/119/1 86/120/1 66/102/1 73/94/1
f 89/121/4 87/117/4 67/103/4 69/101/4
f 86/120/1 88/122/1 68/99/1 66/102/1
f 91/123/4 89/121/4 69/101/4 71/98/4
f 88/122/1 90/124/1 70/100/1 68/99/1
f 83/125/4 91/123/4 71/98/4 63/97/4
f 90/124/2 88/122/2 140/122/2 133/124/2
f 98/126/1 93/119/1 73/94/1 78/89/1
f 85/118/4 94/127/4 74/90/4 65/93/4
f 110/128/6 112/129/6 142/129/6 141/128/6
f 97/130/4 96/131/4 76/85/4 77/91/4
f 94/127/4 97/130/4 77/91/4 74/90/4
f 95/132/1 98/126/1 78/89/1 75/88/1
f 84/133/1 99/71/1 79/58/1 64/87/1
f 96/131/4 100/114/4 80/86/4 76/85/4
f 41/109/3 43/108/3 61/134/3 63/135/3
f 116/136/4 120/137/4 100/114/4 96/131/4
f 104/138/1 119/92/1 99/71/1 84/133/1
f 22/6/2 18/51/2 122/51/2 123/6/2
f 114/139/4 117/140/4 97/130/4 94/127/4
f 117/140/4 116/136/4 96/131/4 97/130/4
f 75/88/3 55/80/3 127/80/3 131/88/3
f 105/141/4 114/139/4 94/127/4 85/118/4
f 108/142/6 110/128/6 141/128/6 139/142/6
f 95/132/3 75/88/3 131/88/3 135/132/3
f 103/143/4 111/144/4 91/123/4 83/125/4
f 93/119/2 98/126/2 147/126/2 144/119/2
f 111/144/4 109/145/4 89/121/4 91/123/4
f 18/54/5 50/53/5 121/53/5 122/54/5
f 109/145/4 107/146/4 87/117/4 89/121/4
f 106/147/6 108/142/6 139/142/6 137/147/6
f 107/146/4 105/141/4 85/118/4 87/117/4
f 102/148/5 104/149/5 84/116/5 82/115/5
f 120/137/4 102/148/4 82/115/4 100/114/4
f 112/129/1 101/150/1 81/113/1 92/112/1
f 63/135/3 61/134/3 81/151/3 83/152/3
f 24/153/1 5/154/1 101/150/1 112/129/1
f 39/155/4 2/22/4 102/148/4 120/137/4
f 2/22/5 1/21/5 104/149/5 102/148/5
f 13/156/4 9/157/4 105/141/4 107/146/4
f 26/158/1 12/159/1 106/147/1 113/96/1
f 17/160/4 13/156/4 107/146/4 109/145/4
f 12/159/1 16/161/1 108/142/1 106/147/1
f 21/162/4 17/160/4 109/145/4 111/144/4
f 16/161/1 20/163/1 110/128/1 108/142/1
f 6/164/4 21/162/4 111/144/4 103/143/4
f 20/163/1 24/153/1 112/129/1 110/128/1
f 36/165/1 26/158/1 113/96/1 118/95/1
f 9/157/4 27/166/4 114/139/4 105/141/4
f 38/167/1 30/168/1 115/169/1 119/92/1
f 33/170/4 31/171/4 116/136/4 117/140/4
f 27/166/4 33/170/4 117/140/4 114/139/4
f 30/168/1 36/165/1 118/95/1 115/169/1
f 1/172/1 38/167/1 119/92/1 104/138/1
f 31/171/4 39/155/4 120/137/4 116/136/4
f 83/152/3 81/151/3 101/10/3 103/9/3
f 88/122/2 86/120/2 138/120/2 140/122/2
f 119/92/6 115/169/6 145/169/6 148/92/6
f 32/69/2 40/68/2 125/68/2 126/69/2
f 86/120/2 93/119/2 144/119/2 138/120/2
f 52/1/3 22/4/3 123/4/3 124/1/3
f 55/80/3 32/81/3 126/81/3 127/80/3
f 98/126/2 95/132/2 135/132/2 147/126/2
f 115/169/6 118/95/6 146/95/6 145/169/6
f 70/100/5 90/124/5 133/124/5 129/100/5
f 50/53/5 70/100/5 129/100/5 121/53/5
f 40/83/5 59/57/5 128/57/5 125/83/5
f 113/96/6 106/147/6 137/147/6 143/96/6
f 112/129/3 92/112/3 134/112/3 142/129/3
f 92/112/3 72/110/3 130/110/3 134/112/3
f 72/110/3 52/1/3 124/1/3 130/110/3
usemtl Material.001
f 121/53/1 124/1/1 123/4/1 122/54/1
f 128/57/1 127/80/1 126/81/1 125/83/1
f 132/58/1 131/88/1 127/80/1 128/57/1
f 129/100/1 130/110/1 124/1/1 121/53/1
f 133/124/1 134/112/1 130/110/1 129/100/1
f 136/71/1 135/132/1 131/88/1 132/58/1
f 145/169/1 146/95/1 147/126/1 135/132/1
f 148/92/1 145/169/1 135/132/1 136/71/1
f 146/95/1 143/96/1 144/119/1 147/126/1
f 141/128/1 142/129/1 134/112/1 133/124/1
f 139/142/1 141/128/1 133/124/1 140/122/1
f 137/147/1 139/142/1 140/122/1 138/120/1
f 143/96/1 137/147/1 138/120/1 144/119/1
